<mxfile host="Electron" agent="Mozilla/5.0 (Macintosh; Intel Mac OS X 10_15_7) AppleWebKit/537.36 (KHTML, like Gecko) draw.io/26.0.9 Chrome/128.0.6613.186 Electron/32.2.5 Safari/537.36" version="26.0.9">
  <diagram name="Page-1" id="mTDZiDusOZW4-uB36H_L">
    <mxGraphModel dx="1137" dy="718" grid="1" gridSize="10" guides="1" tooltips="1" connect="1" arrows="1" fold="1" page="1" pageScale="1" pageWidth="1920" pageHeight="1200" math="0" shadow="0">
      <root>
        <mxCell id="0" />
        <mxCell id="1" parent="0" />
        <mxCell id="FpaZFgxEYtg7I9pWIicz-1" value="User Uploads HTML Form" style="whiteSpace=wrap;strokeWidth=2;" vertex="1" parent="1">
          <mxGeometry x="20" y="98" width="238" height="54" as="geometry" />
        </mxCell>
        <mxCell id="FpaZFgxEYtg7I9pWIicz-2" value="Go/Fiber Backend API" style="rhombus;strokeWidth=2;whiteSpace=wrap;" vertex="1" parent="1">
          <mxGeometry x="308" y="20" width="210" height="210" as="geometry" />
        </mxCell>
        <mxCell id="FpaZFgxEYtg7I9pWIicz-3" value="Amazon S3 Processed Photos" style="whiteSpace=wrap;strokeWidth=2;" vertex="1" parent="1">
          <mxGeometry x="752" y="65" width="260" height="78" as="geometry" />
        </mxCell>
        <mxCell id="FpaZFgxEYtg7I9pWIicz-4" value="Amazon DynamoDB" style="whiteSpace=wrap;strokeWidth=2;" vertex="1" parent="1">
          <mxGeometry x="783" y="193" width="196" height="54" as="geometry" />
        </mxCell>
        <mxCell id="FpaZFgxEYtg7I9pWIicz-5" value="Amazon SQS Queue" style="whiteSpace=wrap;strokeWidth=2;" vertex="1" parent="1">
          <mxGeometry x="783" y="297" width="198" height="54" as="geometry" />
        </mxCell>
        <mxCell id="FpaZFgxEYtg7I9pWIicz-6" value="AWS Lambda Print Service" style="rhombus;strokeWidth=2;whiteSpace=wrap;" vertex="1" parent="1">
          <mxGeometry x="1122" y="204" width="240" height="240" as="geometry" />
        </mxCell>
        <mxCell id="FpaZFgxEYtg7I9pWIicz-7" value="DynamoDB Update: Printed" style="whiteSpace=wrap;strokeWidth=2;" vertex="1" parent="1">
          <mxGeometry x="1545" y="229" width="254" height="54" as="geometry" />
        </mxCell>
        <mxCell id="FpaZFgxEYtg7I9pWIicz-8" value="Amazon SNS Topic" style="whiteSpace=wrap;strokeWidth=2;" vertex="1" parent="1">
          <mxGeometry x="1578" y="333" width="188" height="54" as="geometry" />
        </mxCell>
        <mxCell id="FpaZFgxEYtg7I9pWIicz-9" value="Customer Picks Up Photos" style="whiteSpace=wrap;strokeWidth=2;" vertex="1" parent="1">
          <mxGeometry x="1850" y="229" width="244" height="54" as="geometry" />
        </mxCell>
        <mxCell id="FpaZFgxEYtg7I9pWIicz-10" value="Amazon SES Email Service" style="whiteSpace=wrap;strokeWidth=2;" vertex="1" parent="1">
          <mxGeometry x="1849" y="333" width="246" height="54" as="geometry" />
        </mxCell>
        <mxCell id="FpaZFgxEYtg7I9pWIicz-11" value="Customer Receives Email" style="whiteSpace=wrap;strokeWidth=2;" vertex="1" parent="1">
          <mxGeometry x="2145" y="333" width="239" height="54" as="geometry" />
        </mxCell>
        <mxCell id="FpaZFgxEYtg7I9pWIicz-12" value="" style="curved=1;startArrow=none;endArrow=block;exitX=1;exitY=0.5;entryX=0;entryY=0.5;rounded=0;" edge="1" parent="1" source="FpaZFgxEYtg7I9pWIicz-1" target="FpaZFgxEYtg7I9pWIicz-2">
          <mxGeometry relative="1" as="geometry">
            <Array as="points" />
          </mxGeometry>
        </mxCell>
        <mxCell id="FpaZFgxEYtg7I9pWIicz-13" value="Resizes photo" style="curved=1;startArrow=none;endArrow=block;exitX=1;exitY=0.36;entryX=0;entryY=0.21;rounded=0;" edge="1" parent="1" source="FpaZFgxEYtg7I9pWIicz-2" target="FpaZFgxEYtg7I9pWIicz-3">
          <mxGeometry relative="1" as="geometry">
            <Array as="points">
              <mxPoint x="635" y="61" />
            </Array>
          </mxGeometry>
        </mxCell>
        <mxCell id="FpaZFgxEYtg7I9pWIicz-14" value="Generates presigned URL" style="curved=1;startArrow=none;endArrow=block;exitX=1;exitY=0.45;entryX=0;entryY=0.5;rounded=0;" edge="1" parent="1" source="FpaZFgxEYtg7I9pWIicz-2" target="FpaZFgxEYtg7I9pWIicz-3">
          <mxGeometry relative="1" as="geometry">
            <Array as="points">
              <mxPoint x="635" y="104" />
            </Array>
          </mxGeometry>
        </mxCell>
        <mxCell id="FpaZFgxEYtg7I9pWIicz-15" value="Uploads to S3" style="curved=1;startArrow=none;endArrow=block;exitX=1;exitY=0.55;entryX=0;entryY=0.78;rounded=0;" edge="1" parent="1" source="FpaZFgxEYtg7I9pWIicz-2" target="FpaZFgxEYtg7I9pWIicz-3">
          <mxGeometry relative="1" as="geometry">
            <Array as="points">
              <mxPoint x="635" y="146" />
            </Array>
          </mxGeometry>
        </mxCell>
        <mxCell id="FpaZFgxEYtg7I9pWIicz-16" value="Updates DynamoDB" style="curved=1;startArrow=none;endArrow=block;exitX=1;exitY=0.71;entryX=0;entryY=0.5;rounded=0;" edge="1" parent="1" source="FpaZFgxEYtg7I9pWIicz-2" target="FpaZFgxEYtg7I9pWIicz-4">
          <mxGeometry relative="1" as="geometry">
            <Array as="points">
              <mxPoint x="635" y="220" />
            </Array>
          </mxGeometry>
        </mxCell>
        <mxCell id="FpaZFgxEYtg7I9pWIicz-17" value="Sends print job to SQS" style="curved=1;startArrow=none;endArrow=block;exitX=1;exitY=0.95;entryX=0;entryY=0.5;rounded=0;" edge="1" parent="1" source="FpaZFgxEYtg7I9pWIicz-2" target="FpaZFgxEYtg7I9pWIicz-5">
          <mxGeometry relative="1" as="geometry">
            <Array as="points">
              <mxPoint x="635" y="324" />
            </Array>
          </mxGeometry>
        </mxCell>
        <mxCell id="FpaZFgxEYtg7I9pWIicz-18" value="Triggers" style="curved=1;startArrow=none;endArrow=block;exitX=1;exitY=0.5;entryX=0;entryY=0.5;rounded=0;" edge="1" parent="1" source="FpaZFgxEYtg7I9pWIicz-5" target="FpaZFgxEYtg7I9pWIicz-6">
          <mxGeometry relative="1" as="geometry">
            <Array as="points" />
          </mxGeometry>
        </mxCell>
        <mxCell id="FpaZFgxEYtg7I9pWIicz-19" value="Simulates printing" style="curved=1;startArrow=none;endArrow=block;exitX=1;exitY=0.34;entryX=0;entryY=0.5;rounded=0;" edge="1" parent="1" source="FpaZFgxEYtg7I9pWIicz-6" target="FpaZFgxEYtg7I9pWIicz-7">
          <mxGeometry relative="1" as="geometry">
            <Array as="points">
              <mxPoint x="1453" y="256" />
            </Array>
          </mxGeometry>
        </mxCell>
        <mxCell id="FpaZFgxEYtg7I9pWIicz-20" value="Sends notification" style="curved=1;startArrow=none;endArrow=block;exitX=1;exitY=0.59;entryX=0;entryY=0.5;rounded=0;" edge="1" parent="1" source="FpaZFgxEYtg7I9pWIicz-6" target="FpaZFgxEYtg7I9pWIicz-8">
          <mxGeometry relative="1" as="geometry">
            <Array as="points">
              <mxPoint x="1453" y="360" />
            </Array>
          </mxGeometry>
        </mxCell>
        <mxCell id="FpaZFgxEYtg7I9pWIicz-21" value="" style="curved=1;startArrow=none;endArrow=block;exitX=1;exitY=0.5;entryX=0;entryY=0.5;rounded=0;" edge="1" parent="1" source="FpaZFgxEYtg7I9pWIicz-7" target="FpaZFgxEYtg7I9pWIicz-9">
          <mxGeometry relative="1" as="geometry">
            <Array as="points" />
          </mxGeometry>
        </mxCell>
        <mxCell id="FpaZFgxEYtg7I9pWIicz-22" value="" style="curved=1;startArrow=none;endArrow=block;exitX=1;exitY=0.5;entryX=0;entryY=0.5;rounded=0;" edge="1" parent="1" source="FpaZFgxEYtg7I9pWIicz-8" target="FpaZFgxEYtg7I9pWIicz-10">
          <mxGeometry relative="1" as="geometry">
            <Array as="points" />
          </mxGeometry>
        </mxCell>
        <mxCell id="FpaZFgxEYtg7I9pWIicz-23" value="" style="curved=1;startArrow=none;endArrow=block;exitX=1;exitY=0.5;entryX=0;entryY=0.5;rounded=0;" edge="1" parent="1" source="FpaZFgxEYtg7I9pWIicz-10" target="FpaZFgxEYtg7I9pWIicz-11">
          <mxGeometry relative="1" as="geometry">
            <Array as="points" />
          </mxGeometry>
        </mxCell>
      </root>
    </mxGraphModel>
  </diagram>
</mxfile>
